<svg xmlns="http://www.w3.org/2000/svg" viewBox="0 0 21.43 21.5"><defs><style>.cls-1{fill:#0a1015;}</style></defs><g id="Слой_2" data-name="Слой 2"><g id="Слой_1-2" data-name="Слой 1"><path class="cls-1" d="M15.25,21.5a1.25,1.25,0,1,1,1.25-1.25A1.25,1.25,0,0,1,15.25,21.5Zm-9,0A1.25,1.25,0,1,1,7.5,20.25,1.25,1.25,0,0,1,6.25,21.5Zm11.5-4H4.5a1.71,1.71,0,0,1-.83-.13,1.3,1.3,0,0,1-.54-.5A1.9,1.9,0,0,1,3,16.05l-.9-14.5V1.5H.75A.76.76,0,0,1,0,.75.76.76,0,0,1,.75,0H2a1.71,1.71,0,0,1,.83.13,1.21,1.21,0,0,1,.54.51,1.83,1.83,0,0,1,.18.81L3.64,3H19.86a1.78,1.78,0,0,1,.94.16,1.19,1.19,0,0,1,.54.61,1.76,1.76,0,0,1,.06.95L20.81,10a5.34,5.34,0,0,1-.5,2.19,2.75,2.75,0,0,1-1.18,1.06,5.25,5.25,0,0,1-2.24.26H4.3L4.45,16V16h13.3a.75.75,0,0,1,0,1.5ZM4.2,12H16.89a4.79,4.79,0,0,0,1.6-.12A1.25,1.25,0,0,0,19,11.4a5.1,5.1,0,0,0,.29-1.57l.59-5.27V4.5H3.74Z"/></g></g></svg>