<svg width="8" height="8" viewBox="0 0 8 8" fill="none" xmlns="http://www.w3.org/2000/svg">
<path d="M3.18291 1.79214C3.18291 2.44814 3.69491 2.96014 4.35091 2.96014C4.97491 2.96014 5.50291 2.44814 5.50291 1.79214C5.50291 1.16814 4.97491 0.640137 4.35091 0.640137C3.69491 0.640137 3.18291 1.16814 3.18291 1.79214ZM3.15091 6.68814C3.15091 7.31214 3.66291 7.82414 4.30291 7.82414C4.92691 7.82414 5.45491 7.31214 5.45491 6.68814C5.45491 6.04814 4.92691 5.50414 4.30291 5.50414C3.66291 5.50414 3.15091 6.04814 3.15091 6.68814ZM5.42291 2.91214C5.42291 3.55214 5.96691 4.06414 6.59091 4.06414C7.23091 4.06414 7.75891 3.55214 7.75891 2.91214C7.75891 2.28814 7.23091 1.74414 6.59091 1.74414C5.96691 1.74414 5.42291 2.28814 5.42291 2.91214ZM5.42291 5.52014C5.42291 6.14414 5.96691 6.65614 6.59091 6.65614C7.23091 6.65614 7.75891 6.14414 7.75891 5.52014C7.75891 4.88014 7.23091 4.33614 6.59091 4.33614C5.96691 4.33614 5.42291 4.88014 5.42291 5.52014ZM0.878906 5.52014C0.878906 6.14414 1.40691 6.65614 2.03091 6.65614C2.68691 6.65614 3.21491 6.14414 3.21491 5.52014C3.21491 4.88014 2.68691 4.33614 2.03091 4.33614C1.40691 4.33614 0.878906 4.88014 0.878906 5.52014ZM0.878906 2.91214C0.878906 3.55214 1.40691 4.06414 2.03091 4.06414C2.68691 4.06414 3.21491 3.55214 3.21491 2.91214C3.21491 2.28814 2.68691 1.74414 2.03091 1.74414C1.40691 1.74414 0.878906 2.28814 0.878906 2.91214Z" fill="#0A1015"/>
</svg>
