<svg xmlns="http://www.w3.org/2000/svg" viewBox="0 0 20 22"><defs><style>.cls-1{fill:#9f9f9f;}</style></defs><g id="Слой_2" data-name="Слой 2"><g id="Слой_1-2" data-name="Слой 1"><path class="cls-1" d="M12.2,22H7.8C6,22,5,22,4.18,21.56a4,4,0,0,1-1.74-1.74C2,19,2,18,2,16.2V6H1A1,1,0,0,1,1,4H5a5,5,0,0,1,.33-2.36A3,3,0,0,1,6.64.33,5.43,5.43,0,0,1,9.2,0h1.6a5.43,5.43,0,0,1,2.56.33,3,3,0,0,1,1.31,1.31A5,5,0,0,1,15,4h4a1,1,0,0,1,0,2H18V16.2c0,1.84,0,2.76-.44,3.62a4,4,0,0,1-1.74,1.74C15,22,14,22,12.2,22ZM4,6V16.2a7.55,7.55,0,0,0,.22,2.71,1.93,1.93,0,0,0,.87.87A7.55,7.55,0,0,0,7.8,20h4.4a7.55,7.55,0,0,0,2.71-.22,1.93,1.93,0,0,0,.87-.87A7.55,7.55,0,0,0,16,16.2V6ZM7,4h6a4.67,4.67,0,0,0-.11-1.46,1.07,1.07,0,0,0-.44-.43A5.45,5.45,0,0,0,10.8,2H9.2a5.57,5.57,0,0,0-1.66.11,1,1,0,0,0-.43.44A4.55,4.55,0,0,0,7,4Z"/></g></g></svg>