<svg xmlns="http://www.w3.org/2000/svg" viewBox="0 0 19.5 19.5"><defs><style>.cls-1{fill:#0a1015;}</style></defs><g id="Слой_2" data-name="Слой 2"><g id="Слой_1-2" data-name="Слой 1"><path class="cls-1" d="M7.75,19.5a.75.75,0,0,1-.29-.06A.74.74,0,0,1,7,18.75V12.16A.26.26,0,0,0,6.93,12L.51,5.57A1.73,1.73,0,0,1,0,4.34V1.75A1.74,1.74,0,0,1,1.75,0h16A1.74,1.74,0,0,1,19.5,1.75V4.34A1.73,1.73,0,0,1,19,5.57L12.57,12a.26.26,0,0,0-.07.17v2.59a.75.75,0,0,1-.22.53l-4,4A.77.77,0,0,1,7.75,19.5Zm-6-18a.29.29,0,0,0-.18.07.29.29,0,0,0-.07.18V4.34a.26.26,0,0,0,.07.17L8,10.93a1.73,1.73,0,0,1,.51,1.23v4.78l2.5-2.5V12.16a1.73,1.73,0,0,1,.51-1.23l6.42-6.42A.26.26,0,0,0,18,4.34V1.75a.29.29,0,0,0-.07-.18.29.29,0,0,0-.18-.07Z"/></g></g></svg>