<svg xmlns="http://www.w3.org/2000/svg" viewBox="0 0 17.23 17.23"><defs><style>.cls-1{fill:#353535;}</style></defs><g id="Слой_2" data-name="Слой 2"><g id="Слой_1-2" data-name="Слой 1"><path class="cls-1" d="M1.82,7.61c-.47-.18-.71-.27-.78-.4a.4.4,0,0,1,0-.37c.07-.13.31-.22.78-.41L15.19,1.22c.42-.17.64-.25.77-.21a.41.41,0,0,1,.25.25c.05.14,0,.35-.2.78L10.79,15.41c-.18.47-.27.7-.41.77a.38.38,0,0,1-.36,0c-.13-.07-.23-.3-.41-.77L7.53,10.06a1,1,0,0,0-.08-.19l-.1-.09a.51.51,0,0,0-.18-.08Z"/><path d="M10.2,17.23a1.44,1.44,0,0,1-.64-.16c-.47-.24-.63-.66-.88-1.3l-2-5.2-5.2-2C.82,8.3.4,8.14.16,7.67a1.4,1.4,0,0,1,0-1.29c.24-.46.66-.63,1.29-.88L14.83.29A2,2,0,0,1,16.28.06a1.42,1.42,0,0,1,.88.89,2,2,0,0,1-.22,1.45L11.72,15.77c-.24.64-.41,1.06-.88,1.3A1.44,1.44,0,0,1,10.2,17.23ZM8.6,10l1.6,4.13,3.67-9.4ZM3.06,7,7.18,8.63l5.27-5.27Z"/></g></g></svg>